<svg xmlns="http://www.w3.org/2000/svg" width="504.949" height="325" viewBox="0 0 504.949 325">
  <g id="Grupo_1113170" data-name="Grupo 1113170" transform="translate(-495.051 -5374.812)">
    <rect id="Rectángulo_402709" data-name="Rectángulo 402709" width="504.949" height="325" rx="8" transform="translate(495.051 5374.812)" fill="#fcf8de"/>
    <text id="OH" transform="translate(742.051 5538.812)" fill="#12263f" font-size="16" font-family="Roboto-Medium, Roboto" font-weight="500"><tspan x="-11.207" y="0">OH</tspan></text>
    <rect id="Rectángulo_404515" data-name="Rectángulo 404515" width="197" height="286" rx="9" transform="translate(512.051 5394)" fill="#f8f0bc"/>
    <path id="Trazado_898108" data-name="Trazado 898108" d="M-8174.167-5407.369c1.565-1.377,32.594-43.2,32.594-43.2h40.477" transform="translate(8724.051 10901.812)" fill="none" stroke="#ff6464" stroke-width="2"/>
    <path id="Trazado_898109" data-name="Trazado 898109" d="M-8083.406-5442.375l26.191,35.322-30.849,41.852h-54.208l-31.84-41.852" transform="translate(8724.051 10901.812)" fill="none" stroke="#ff6464" stroke-width="2"/>
    <path id="Trazado_898110" data-name="Trazado 898110" d="M-8141.817-5478.24v26.837" transform="translate(8724.051 10903.812)" fill="none" stroke="#ff6464" stroke-width="2"/>
    <path id="Trazado_898111" data-name="Trazado 898111" d="M-8141.817-5478.24v28.919" transform="translate(8808.653 10944.729)" fill="none" stroke="#ff6464" stroke-width="2"/>
    <path id="Trazado_898112" data-name="Trazado 898112" d="M-8141.817-5478.24v26.837" transform="translate(8691.701 10972.683)" fill="none" stroke="#ff6464" stroke-width="2"/>
    <path id="Trazado_898113" data-name="Trazado 898113" d="M-8141.817-5478.24v30.171" transform="translate(8777.701 11014.851)" fill="none" stroke="#ff6464" stroke-width="2"/>
    <path id="Trazado_898114" data-name="Trazado 898114" d="M-8141.817-5478.24v26.837" transform="translate(8723.051 10988.014)" fill="none" stroke="#ff6464" stroke-width="2"/>
    <path id="Trazado_923417" data-name="Trazado 923417" d="M-1.07-3.7A4.107,4.107,0,0,1-2.414-.863,4.581,4.581,0,0,1-5.531.156,4.436,4.436,0,0,1-7.926-.488a4.231,4.231,0,0,1-1.6-1.832,6.611,6.611,0,0,1-.586-2.758V-6.141a6.659,6.659,0,0,1,.57-2.836A4.3,4.3,0,0,1-7.9-10.867a4.566,4.566,0,0,1,2.465-.664,4.4,4.4,0,0,1,3.031,1.02A4.26,4.26,0,0,1-1.07-7.625H-3.039a2.81,2.81,0,0,0-.715-1.77,2.363,2.363,0,0,0-1.684-.543A2.308,2.308,0,0,0-7.418-9a4.709,4.709,0,0,0-.707,2.764v1.009a5,5,0,0,0,.66,2.815,2.191,2.191,0,0,0,1.934.97,2.555,2.555,0,0,0,1.75-.523A2.729,2.729,0,0,0-3.039-3.7ZM9.727,0H7.758V-5.047H2.672V0H.7V-11.375H2.672v4.734H7.758v-4.734H9.727Z" transform="translate(589.051 5418.812)" fill="#12263f"/>
    <path id="Trazado_923419" data-name="Trazado 923419" d="M-.973-5.391a6.979,6.979,0,0,1-.578,2.934A4.371,4.371,0,0,1-3.2-.52,4.545,4.545,0,0,1-5.676.156,4.556,4.556,0,0,1-8.141-.52,4.438,4.438,0,0,1-9.812-2.445a6.761,6.761,0,0,1-.6-2.883v-.641a6.919,6.919,0,0,1,.59-2.937,4.433,4.433,0,0,1,1.664-1.949,4.531,4.531,0,0,1,2.465-.676,4.57,4.57,0,0,1,2.465.668,4.377,4.377,0,0,1,1.66,1.922A6.9,6.9,0,0,1-.973-6.023Zm-1.977-.594a4.973,4.973,0,0,0-.715-2.9A2.339,2.339,0,0,0-5.691-9.891a2.332,2.332,0,0,0-2,1,4.876,4.876,0,0,0-.738,2.84v.656a4.935,4.935,0,0,0,.73,2.9A2.352,2.352,0,0,0-5.676-1.469a2.325,2.325,0,0,0,2.02-1,5.041,5.041,0,0,0,.707-2.922ZM10.027,0H8.059V-5.047H2.973V0H1V-11.375H2.973v4.734H8.059v-4.734h1.969Z" transform="translate(625.051 5418.812)" fill="#12263f"/>
    <path id="Trazado_923418" data-name="Trazado 923418" d="M2.306,5H-2.155V4.239L.055,1.828A5.5,5.5,0,0,0,.736.937,1.443,1.443,0,0,0,.939.22,1.09,1.09,0,0,0,.672-.546.925.925,0,0,0-.046-.838,1.066,1.066,0,0,0-.88-.509a1.29,1.29,0,0,0-.3.9H-2.283A2.17,2.17,0,0,1-2.007-.7a1.9,1.9,0,0,1,.788-.754A2.509,2.509,0,0,1-.036-1.726a2.245,2.245,0,0,1,1.524.485A1.685,1.685,0,0,1,2.046.1a2.277,2.277,0,0,1-.28,1.041A5.921,5.921,0,0,1,.848,2.38L-.775,4.116H2.306Z" transform="translate(605.051 5415.812)" fill="#12263f"/>
    <path id="Trazado_923420" data-name="Trazado 923420" d="M4.711-5.391a6.979,6.979,0,0,1-.578,2.934A4.371,4.371,0,0,1,2.48-.52,4.545,4.545,0,0,1,.008.156,4.556,4.556,0,0,1-2.457-.52,4.438,4.438,0,0,1-4.129-2.445a6.761,6.761,0,0,1-.6-2.883v-.641a6.919,6.919,0,0,1,.59-2.937,4.433,4.433,0,0,1,1.664-1.949,4.531,4.531,0,0,1,2.465-.676,4.57,4.57,0,0,1,2.465.668,4.377,4.377,0,0,1,1.66,1.922,6.9,6.9,0,0,1,.594,2.918ZM2.734-5.984a4.973,4.973,0,0,0-.715-2.9A2.339,2.339,0,0,0-.008-9.891a2.332,2.332,0,0,0-2,1,4.876,4.876,0,0,0-.738,2.84v.656a4.935,4.935,0,0,0,.73,2.9A2.352,2.352,0,0,0,.008-1.469a2.325,2.325,0,0,0,2.02-1,5.041,5.041,0,0,0,.707-2.922Z" transform="translate(633.051 5457.812)" fill="#12263f"/>
    <path id="Trazado_923421" data-name="Trazado 923421" d="M-.973-5.391a6.979,6.979,0,0,1-.578,2.934A4.371,4.371,0,0,1-3.2-.52,4.545,4.545,0,0,1-5.676.156,4.556,4.556,0,0,1-8.141-.52,4.438,4.438,0,0,1-9.812-2.445a6.761,6.761,0,0,1-.6-2.883v-.641a6.919,6.919,0,0,1,.59-2.937,4.433,4.433,0,0,1,1.664-1.949,4.531,4.531,0,0,1,2.465-.676,4.57,4.57,0,0,1,2.465.668,4.377,4.377,0,0,1,1.66,1.922A6.9,6.9,0,0,1-.973-6.023Zm-1.977-.594a4.973,4.973,0,0,0-.715-2.9A2.339,2.339,0,0,0-5.691-9.891a2.332,2.332,0,0,0-2,1,4.876,4.876,0,0,0-.738,2.84v.656a4.935,4.935,0,0,0,.73,2.9A2.352,2.352,0,0,0-5.676-1.469a2.325,2.325,0,0,0,2.02-1,5.041,5.041,0,0,0,.707-2.922ZM10.027,0H8.059V-5.047H2.973V0H1V-11.375H2.973v4.734H8.059v-4.734h1.969Z" transform="translate(672.051 5457.812)" fill="#12263f"/>
    <path id="Trazado_923423" data-name="Trazado 923423" d="M-1.02,0H-2.988V-5.047H-8.074V0h-1.977V-11.375h1.977v4.734h5.086v-4.734H-1.02ZM10.395-5.391a6.979,6.979,0,0,1-.578,2.934A4.371,4.371,0,0,1,8.164-.52,4.545,4.545,0,0,1,5.691.156,4.556,4.556,0,0,1,3.227-.52,4.438,4.438,0,0,1,1.555-2.445a6.761,6.761,0,0,1-.6-2.883v-.641a6.919,6.919,0,0,1,.59-2.937,4.433,4.433,0,0,1,1.664-1.949,4.531,4.531,0,0,1,2.465-.676,4.57,4.57,0,0,1,2.465.668A4.377,4.377,0,0,1,9.8-8.941a6.9,6.9,0,0,1,.594,2.918ZM8.418-5.984a4.973,4.973,0,0,0-.715-2.9A2.339,2.339,0,0,0,5.676-9.891a2.332,2.332,0,0,0-2,1,4.876,4.876,0,0,0-.738,2.84v.656a4.935,4.935,0,0,0,.73,2.9A2.352,2.352,0,0,0,5.691-1.469a2.325,2.325,0,0,0,2.02-1,5.041,5.041,0,0,0,.707-2.922Z" transform="translate(543.051 5541.812)" fill="#12263f"/>
    <path id="Trazado_923422" data-name="Trazado 923422" d="M-1.965-4.789a6.2,6.2,0,0,1-.918,3.7A3.242,3.242,0,0,1-5.676.156,3.285,3.285,0,0,1-8.453-1.059a5.94,5.94,0,0,1-.957-3.6V-6.625a6.11,6.11,0,0,1,.918-3.68,3.272,3.272,0,0,1,2.8-1.227,3.291,3.291,0,0,1,2.785,1.2,5.924,5.924,0,0,1,.941,3.578Zm-1.9-2.125A4.813,4.813,0,0,0-4.3-9.262a1.493,1.493,0,0,0-1.391-.746A1.492,1.492,0,0,0-7.059-9.3,4.448,4.448,0,0,0-7.52-7.094v2.578a4.937,4.937,0,0,0,.445,2.375,1.5,1.5,0,0,0,1.4.781,1.469,1.469,0,0,0,1.352-.723,4.645,4.645,0,0,0,.461-2.262ZM9.051,0H7.082V-5.047H2V0H.02V-11.375H2v4.734H7.082v-4.734H9.051Z" transform="translate(581.051 5503.812)" fill="#12263f"/>
    <path id="Trazado_923424" data-name="Trazado 923424" d="M-1.965-4.789a6.2,6.2,0,0,1-.918,3.7A3.242,3.242,0,0,1-5.676.156,3.285,3.285,0,0,1-8.453-1.059a5.94,5.94,0,0,1-.957-3.6V-6.625a6.11,6.11,0,0,1,.918-3.68,3.272,3.272,0,0,1,2.8-1.227,3.291,3.291,0,0,1,2.785,1.2,5.924,5.924,0,0,1,.941,3.578Zm-1.9-2.125A4.813,4.813,0,0,0-4.3-9.262a1.493,1.493,0,0,0-1.391-.746A1.492,1.492,0,0,0-7.059-9.3,4.448,4.448,0,0,0-7.52-7.094v2.578a4.937,4.937,0,0,0,.445,2.375,1.5,1.5,0,0,0,1.4.781,1.469,1.469,0,0,0,1.352-.723,4.645,4.645,0,0,0,.461-2.262ZM9.051,0H7.082V-5.047H2V0H.02V-11.375H2v4.734H7.082v-4.734H9.051Z" transform="translate(637.051 5583.812)" fill="#12263f"/>
    <path id="Trazado_923425" data-name="Trazado 923425" d="M-19.258-1.477A3.779,3.779,0,0,1-20.969-.258a6.98,6.98,0,0,1-2.484.414,4.9,4.9,0,0,1-2.531-.648,4.319,4.319,0,0,1-1.7-1.855A6.491,6.491,0,0,1-28.3-5.164v-.891a6.02,6.02,0,0,1,1.234-4.027,4.281,4.281,0,0,1,3.445-1.449,4.529,4.529,0,0,1,3.016.941,4.057,4.057,0,0,1,1.344,2.707H-21.2a2.18,2.18,0,0,0-2.383-2.055,2.337,2.337,0,0,0-2.02.954,4.855,4.855,0,0,0-.715,2.8v.873a4.611,4.611,0,0,0,.777,2.855,2.566,2.566,0,0,0,2.16,1.017,2.857,2.857,0,0,0,2.156-.684V-4.336H-23.57v-1.5h4.313ZM-15.25,0h-1.9V-12h1.9Zm7.188-.828a2.944,2.944,0,0,1-2.375.984,2.624,2.624,0,0,1-2.082-.8,3.423,3.423,0,0,1-.707-2.328V-8.453h1.9V-3q0,1.609,1.336,1.609a1.876,1.876,0,0,0,1.867-.992v-6.07h1.9V0H-8.016ZM-.82-1.359a1.716,1.716,0,0,0,1.18-.414A1.415,1.415,0,0,0,.859-2.8H2.648a2.789,2.789,0,0,1-.492,1.473A3.228,3.228,0,0,1,.906-.242a3.725,3.725,0,0,1-1.7.4A3.6,3.6,0,0,1-3.609-.992,4.555,4.555,0,0,1-4.648-4.164v-.2a4.479,4.479,0,0,1,1.031-3.09A3.571,3.571,0,0,1-.8-8.609a3.473,3.473,0,0,1,2.457.879,3.148,3.148,0,0,1,1,2.309H.859a1.738,1.738,0,0,0-.5-1.2A1.6,1.6,0,0,0-.82-7.086a1.671,1.671,0,0,0-1.422.668A3.408,3.408,0,0,0-2.75-4.391v.3a3.465,3.465,0,0,0,.5,2.051A1.669,1.669,0,0,0-.82-1.359ZM3.727-4.3a4.984,4.984,0,0,1,.492-2.238A3.6,3.6,0,0,1,5.6-8.074a3.9,3.9,0,0,1,2.047-.535,3.692,3.692,0,0,1,2.777,1.1,4.333,4.333,0,0,1,1.152,2.922l.008.445a5.029,5.029,0,0,1-.48,2.234A3.551,3.551,0,0,1,9.73-.383,3.925,3.925,0,0,1,7.664.156,3.667,3.667,0,0,1,4.8-1.035,4.563,4.563,0,0,1,3.727-4.211Zm1.9.164A3.406,3.406,0,0,0,6.164-2.1a1.752,1.752,0,0,0,1.5.738,1.733,1.733,0,0,0,1.5-.75A3.762,3.762,0,0,0,9.7-4.3a3.362,3.362,0,0,0-.551-2.031,1.759,1.759,0,0,0-1.5-.75,1.743,1.743,0,0,0-1.477.738A3.691,3.691,0,0,0,5.625-4.141ZM17.93-2.3a.861.861,0,0,0-.418-.773,4.445,4.445,0,0,0-1.387-.469,7.129,7.129,0,0,1-1.617-.516,2.158,2.158,0,0,1-1.422-1.992,2.25,2.25,0,0,1,.922-1.828,3.644,3.644,0,0,1,2.344-.734,3.792,3.792,0,0,1,2.449.75,2.38,2.38,0,0,1,.934,1.945h-1.9a1.17,1.17,0,0,0-.406-.91,1.557,1.557,0,0,0-1.078-.363,1.682,1.682,0,0,0-1.02.289.911.911,0,0,0-.395.773.769.769,0,0,0,.367.68,5.049,5.049,0,0,0,1.484.488,7.027,7.027,0,0,1,1.754.586,2.484,2.484,0,0,1,.945.816A2.082,2.082,0,0,1,19.8-2.4a2.2,2.2,0,0,1-.945,1.848,4.031,4.031,0,0,1-2.477.707,4.371,4.371,0,0,1-1.852-.375A3.047,3.047,0,0,1,13.258-1.25,2.441,2.441,0,0,1,12.8-2.664h1.844a1.338,1.338,0,0,0,.508,1.035,1.973,1.973,0,0,0,1.242.363,1.92,1.92,0,0,0,1.141-.285A.883.883,0,0,0,17.93-2.3ZM26.5,0a2.93,2.93,0,0,1-.219-.789,2.955,2.955,0,0,1-2.219.945A2.982,2.982,0,0,1,21.984-.57a2.325,2.325,0,0,1-.8-1.8,2.4,2.4,0,0,1,1-2.074,4.865,4.865,0,0,1,2.871-.723h1.164v-.555a1.481,1.481,0,0,0-.367-1.051,1.456,1.456,0,0,0-1.117-.395,1.672,1.672,0,0,0-1.062.324,1,1,0,0,0-.414.824h-1.9a2.107,2.107,0,0,1,.461-1.3,3.071,3.071,0,0,1,1.254-.949,4.4,4.4,0,0,1,1.77-.344,3.547,3.547,0,0,1,2.367.746,2.661,2.661,0,0,1,.906,2.1v3.813a4.321,4.321,0,0,0,.32,1.82V0ZM24.414-1.367a2.159,2.159,0,0,0,1.059-.273,1.827,1.827,0,0,0,.746-.734V-3.969H25.2a2.8,2.8,0,0,0-1.586.367,1.189,1.189,0,0,0-.531,1.039,1.109,1.109,0,0,0,.363.871A1.407,1.407,0,0,0,24.414-1.367Zm-80.18,20.75a12.079,12.079,0,0,1,.473-3.391,9.85,9.85,0,0,1,1.41-2.953,6,6,0,0,1,1.945-1.875l.3.953a6.222,6.222,0,0,0-1.871,2.672,11.583,11.583,0,0,0-.8,4.023l-.008.664a11.643,11.643,0,0,0,1.1,5.234,6.252,6.252,0,0,0,1.578,2.078l-.3.883a6.192,6.192,0,0,1-1.984-1.937A10.859,10.859,0,0,1-55.766,19.383Zm6.883-3.836.039.938a3.122,3.122,0,0,1,2.508-1.094,2.417,2.417,0,0,1,2.414,1.359,3.2,3.2,0,0,1,1.1-.984,3.242,3.242,0,0,1,1.6-.375q2.781,0,2.828,2.945V24h-1.445V18.422a1.941,1.941,0,0,0-.414-1.355,1.823,1.823,0,0,0-1.391-.449,1.916,1.916,0,0,0-1.336.48,1.949,1.949,0,0,0-.617,1.293V24h-1.453V18.461a1.613,1.613,0,0,0-1.8-1.844A1.934,1.934,0,0,0-48.8,17.828V24H-50.25V15.547ZM-36.6,19.7a4.993,4.993,0,0,1,.488-2.234,3.643,3.643,0,0,1,1.359-1.531,3.7,3.7,0,0,1,1.988-.539,3.565,3.565,0,0,1,2.793,1.2,4.6,4.6,0,0,1,1.066,3.18v.1a5.036,5.036,0,0,1-.473,2.215,3.589,3.589,0,0,1-1.352,1.527,3.743,3.743,0,0,1-2.02.547,3.556,3.556,0,0,1-2.785-1.2A4.575,4.575,0,0,1-36.6,19.8Zm1.453.172a3.616,3.616,0,0,0,.652,2.258,2.088,2.088,0,0,0,1.746.852A2.075,2.075,0,0,0-31,22.113a3.955,3.955,0,0,0,.648-2.418,3.61,3.61,0,0,0-.66-2.254,2.1,2.1,0,0,0-1.754-.863,2.075,2.075,0,0,0-1.727.852A3.925,3.925,0,0,0-35.148,19.867Zm9.422-4.32.047,1.063a3.08,3.08,0,0,1,2.531-1.219q2.68,0,2.7,3.023V24h-1.445V18.406a1.946,1.946,0,0,0-.418-1.352,1.675,1.675,0,0,0-1.277-.437,2.086,2.086,0,0,0-1.234.375,2.546,2.546,0,0,0-.828.984V24h-1.445V15.547Zm7.078,4.148a4.993,4.993,0,0,1,.488-2.234A3.643,3.643,0,0,1-16.8,15.93a3.7,3.7,0,0,1,1.988-.539,3.565,3.565,0,0,1,2.793,1.2,4.6,4.6,0,0,1,1.066,3.18v.1a5.036,5.036,0,0,1-.473,2.215,3.589,3.589,0,0,1-1.352,1.527,3.743,3.743,0,0,1-2.02.547,3.556,3.556,0,0,1-2.785-1.2A4.575,4.575,0,0,1-18.648,19.8Zm1.453.172a3.616,3.616,0,0,0,.652,2.258,2.088,2.088,0,0,0,1.746.852,2.075,2.075,0,0,0,1.75-.863A3.955,3.955,0,0,0-12.4,19.7a3.61,3.61,0,0,0-.66-2.254,2.1,2.1,0,0,0-1.754-.863,2.075,2.075,0,0,0-1.727.852A3.925,3.925,0,0,0-17.2,19.867Zm12.977,1.891a1.064,1.064,0,0,0-.441-.91A4.249,4.249,0,0,0-6.2,20.289a7.277,7.277,0,0,1-1.742-.562,2.479,2.479,0,0,1-.953-.781A1.869,1.869,0,0,1-9.2,17.867a2.193,2.193,0,0,1,.879-1.758,3.432,3.432,0,0,1,2.246-.719,3.532,3.532,0,0,1,2.332.742,2.357,2.357,0,0,1,.895,1.9H-4.3a1.3,1.3,0,0,0-.5-1.023,1.888,1.888,0,0,0-1.27-.43,1.976,1.976,0,0,0-1.234.344,1.082,1.082,0,0,0-.445.9.877.877,0,0,0,.414.789,5.1,5.1,0,0,0,1.5.508,7.8,7.8,0,0,1,1.754.578,2.558,2.558,0,0,1,1,.809,1.988,1.988,0,0,1,.324,1.152,2.163,2.163,0,0,1-.906,1.816,3.8,3.8,0,0,1-2.352.684,4.257,4.257,0,0,1-1.8-.359,2.922,2.922,0,0,1-1.223-1A2.42,2.42,0,0,1-9.492,21.4h1.445a1.5,1.5,0,0,0,.582,1.152,2.258,2.258,0,0,0,1.434.426,2.331,2.331,0,0,0,1.316-.332A1.02,1.02,0,0,0-4.219,21.758ZM4.328,24a3.036,3.036,0,0,1-.2-.891,3.225,3.225,0,0,1-2.406,1.047,2.984,2.984,0,0,1-2.051-.707,2.287,2.287,0,0,1-.8-1.793,2.39,2.39,0,0,1,1-2.051,4.733,4.733,0,0,1,2.824-.73H4.1v-.664A1.623,1.623,0,0,0,3.648,17a1.821,1.821,0,0,0-1.336-.449,2.108,2.108,0,0,0-1.3.391,1.151,1.151,0,0,0-.523.945H-.961a2,2,0,0,1,.449-1.223,3.066,3.066,0,0,1,1.219-.934A4.1,4.1,0,0,1,2.4,15.391a3.342,3.342,0,0,1,2.289.73,2.635,2.635,0,0,1,.859,2.012v3.891a4.757,4.757,0,0,0,.3,1.852V24Zm-2.4-1.1a2.54,2.54,0,0,0,1.289-.352,2.127,2.127,0,0,0,.883-.914V19.9H2.969Q.312,19.9.313,21.453a1.316,1.316,0,0,0,.453,1.063A1.742,1.742,0,0,0,1.93,22.9Zm9.273.078a2.082,2.082,0,0,0,1.352-.469,1.649,1.649,0,0,0,.641-1.172h1.367a2.621,2.621,0,0,1-.5,1.383,3.293,3.293,0,0,1-1.23,1.047,3.55,3.55,0,0,1-1.629.391A3.482,3.482,0,0,1,8.457,23a4.59,4.59,0,0,1-1.02-3.152v-.242a5.089,5.089,0,0,1,.453-2.2,3.451,3.451,0,0,1,1.3-1.492,3.7,3.7,0,0,1,2-.531,3.39,3.39,0,0,1,2.363.852,3.043,3.043,0,0,1,1,2.211H13.2a1.992,1.992,0,0,0-.621-1.348,1.932,1.932,0,0,0-1.379-.527,2.023,2.023,0,0,0-1.707.793,3.724,3.724,0,0,0-.605,2.293v.273a3.65,3.65,0,0,0,.6,2.25A2.033,2.033,0,0,0,11.2,22.977ZM21.406,24a3.036,3.036,0,0,1-.2-.891A3.225,3.225,0,0,1,18.8,24.156a2.984,2.984,0,0,1-2.051-.707,2.287,2.287,0,0,1-.8-1.793,2.39,2.39,0,0,1,1-2.051,4.733,4.733,0,0,1,2.824-.73H21.18v-.664A1.623,1.623,0,0,0,20.727,17a1.821,1.821,0,0,0-1.336-.449,2.108,2.108,0,0,0-1.3.391,1.151,1.151,0,0,0-.523.945H16.117a2,2,0,0,1,.449-1.223,3.066,3.066,0,0,1,1.219-.934,4.1,4.1,0,0,1,1.691-.344,3.342,3.342,0,0,1,2.289.73,2.635,2.635,0,0,1,.859,2.012v3.891a4.757,4.757,0,0,0,.3,1.852V24Zm-2.4-1.1a2.54,2.54,0,0,0,1.289-.352,2.127,2.127,0,0,0,.883-.914V19.9H20.047q-2.656,0-2.656,1.555a1.316,1.316,0,0,0,.453,1.063A1.742,1.742,0,0,0,19.008,22.9Zm1.336-10.883h1.75L20,14.313l-1.164,0Zm8.633,4.828a4.331,4.331,0,0,0-.711-.055A1.9,1.9,0,0,0,26.336,18v6H24.891V15.547H26.3l.023.977a2.251,2.251,0,0,1,2.016-1.133,1.477,1.477,0,0,1,.641.109ZM31.875,24H30.43V15.547h1.445ZM30.313,13.3a.863.863,0,0,1,.215-.594.807.807,0,0,1,.637-.242.819.819,0,0,1,.641.242.854.854,0,0,1,.219.594.826.826,0,0,1-.219.586.834.834,0,0,1-.641.234.821.821,0,0,1-.637-.234A.834.834,0,0,1,30.313,13.3Zm3.523,6.4a4.952,4.952,0,0,1,.922-3.129,3.137,3.137,0,0,1,4.766-.168V12h1.445V24H39.641l-.07-.906a2.943,2.943,0,0,1-2.414,1.063,2.887,2.887,0,0,1-2.395-1.2,5.008,5.008,0,0,1-.926-3.141Zm1.445.164a3.749,3.749,0,0,0,.594,2.25,1.92,1.92,0,0,0,1.641.813A2.108,2.108,0,0,0,39.523,21.7V17.813a2.125,2.125,0,0,0-1.992-1.2,1.929,1.929,0,0,0-1.656.82A4.128,4.128,0,0,0,35.281,19.867Zm7.547-.172a4.993,4.993,0,0,1,.488-2.234,3.643,3.643,0,0,1,1.359-1.531,3.7,3.7,0,0,1,1.988-.539,3.565,3.565,0,0,1,2.793,1.2,4.6,4.6,0,0,1,1.066,3.18v.1a5.036,5.036,0,0,1-.473,2.215A3.589,3.589,0,0,1,48.7,23.609a3.743,3.743,0,0,1-2.02.547,3.556,3.556,0,0,1-2.785-1.2A4.575,4.575,0,0,1,42.828,19.8Zm1.453.172a3.616,3.616,0,0,0,.652,2.258,2.211,2.211,0,0,0,3.5-.012,3.955,3.955,0,0,0,.648-2.418,3.61,3.61,0,0,0-.66-2.254,2.1,2.1,0,0,0-1.754-.863,2.075,2.075,0,0,0-1.727.852A3.925,3.925,0,0,0,44.281,19.867Zm11.391-.406a12.084,12.084,0,0,1-.457,3.34,9.876,9.876,0,0,1-1.4,2.949,6.127,6.127,0,0,1-1.973,1.922l-.3-.883a6.281,6.281,0,0,0,1.934-2.863,12.387,12.387,0,0,0,.746-4.309v-.25a12.861,12.861,0,0,0-.344-3.051,10.3,10.3,0,0,0-.957-2.527,5.838,5.838,0,0,0-1.379-1.742l.3-.883a6.1,6.1,0,0,1,1.965,1.906,9.9,9.9,0,0,1,1.4,2.945A12.363,12.363,0,0,1,55.672,19.461Z" transform="translate(606.884 5620.5)" fill="#12263f"/>
    <rect id="Rectángulo_404516" data-name="Rectángulo 404516" width="262" height="286" rx="9" transform="translate(721.051 5394)" fill="#dcf1e5"/>
    <path id="Trazado_898115" data-name="Trazado 898115" d="M-7925.41-5380.541V-5407.8l27-26.116v-25.979" transform="translate(8667.051 10902.812)" fill="none" stroke="#176229" stroke-width="2"/>
    <path id="Trazado_898116" data-name="Trazado 898116" d="M-7898.407-5434.035h26.307" transform="translate(8667.051 10902.812)" fill="none" stroke="#176229" stroke-width="2"/>
    <path id="Trazado_898117" data-name="Trazado 898117" d="M-7864.051-5377.559h-36.921l-24.282-30.428,26.683,23.674h34.521l24.841-22.1Z" transform="translate(8667.051 10902.812)" fill="#176229"/>
    <path id="Trazado_898118" data-name="Trazado 898118" d="M-7857.657-5426.829l18.111,20.637,10.21,26.4" transform="translate(8667.051 10902.812)" fill="none" stroke="#176229" stroke-width="2"/>
    <path id="Trazado_898119" data-name="Trazado 898119" d="M-7864.051-5353.943v-23.869" transform="translate(8667.051 10900.812)" fill="none" stroke="#176229" stroke-width="2"/>
    <path id="Trazado_898120" data-name="Trazado 898120" d="M-7819.356-5436.057v27.148l-6.128,29.031" transform="translate(8667.051 10902.812)" fill="none" stroke="#176229" stroke-width="2"/>
    <path id="Trazado_898121" data-name="Trazado 898121" d="M-7819.356-5407.967l32.386-29.27" transform="translate(8667.051 10902.812)" fill="none" stroke="#176229" stroke-width="2"/>
    <path id="Trazado_898122" data-name="Trazado 898122" d="M-7770.271-5437.236l37.114,22.8,1.828,35.446" transform="translate(8667.051 10902.812)" fill="none" stroke="#176229" stroke-width="2"/>
    <path id="Trazado_898123" data-name="Trazado 898123" d="M-7864.051-5353.943v-23.869" transform="translate(8737.051 10902.812)" fill="none" stroke="#176229" stroke-width="2"/>
    <path id="Trazado_898124" data-name="Trazado 898124" d="M-7864.051-5377.559h-36.921l-24.282-30.428,26.683,23.674h34.521l24.5-29.736Z" transform="translate(8772.948 10902.812)" fill="#176229"/>
    <path id="Trazado_898125" data-name="Trazado 898125" d="M-7898.407-5399.69l1.6,15.052" transform="translate(8665.051 10904.812)" fill="none" stroke="#176229" stroke-width="2"/>
    <path id="Trazado_898126" data-name="Trazado 898126" d="M-7898.407-5399.69l1.6,18.67" transform="translate(8803.051 10899.193)" fill="none" stroke="#176229" stroke-width="2"/>
    <path id="Trazado_923426" data-name="Trazado 923426" d="M-1.07-3.7A4.107,4.107,0,0,1-2.414-.863,4.581,4.581,0,0,1-5.531.156,4.436,4.436,0,0,1-7.926-.488a4.231,4.231,0,0,1-1.6-1.832,6.611,6.611,0,0,1-.586-2.758V-6.141a6.659,6.659,0,0,1,.57-2.836A4.3,4.3,0,0,1-7.9-10.867a4.566,4.566,0,0,1,2.465-.664,4.4,4.4,0,0,1,3.031,1.02A4.26,4.26,0,0,1-1.07-7.625H-3.039a2.81,2.81,0,0,0-.715-1.77,2.363,2.363,0,0,0-1.684-.543A2.308,2.308,0,0,0-7.418-9a4.709,4.709,0,0,0-.707,2.764v1.009a5,5,0,0,0,.66,2.815,2.191,2.191,0,0,0,1.934.97,2.555,2.555,0,0,0,1.75-.523A2.729,2.729,0,0,0-3.039-3.7ZM9.727,0H7.758V-5.047H2.672V0H.7V-11.375H2.672v4.734H7.758v-4.734H9.727Z" transform="translate(756.051 5434.812)" fill="#12263f"/>
    <path id="Trazado_923428" data-name="Trazado 923428" d="M-.973-5.391a6.979,6.979,0,0,1-.578,2.934A4.371,4.371,0,0,1-3.2-.52,4.545,4.545,0,0,1-5.676.156,4.556,4.556,0,0,1-8.141-.52,4.438,4.438,0,0,1-9.812-2.445a6.761,6.761,0,0,1-.6-2.883v-.641a6.919,6.919,0,0,1,.59-2.937,4.433,4.433,0,0,1,1.664-1.949,4.531,4.531,0,0,1,2.465-.676,4.57,4.57,0,0,1,2.465.668,4.377,4.377,0,0,1,1.66,1.922A6.9,6.9,0,0,1-.973-6.023Zm-1.977-.594a4.973,4.973,0,0,0-.715-2.9A2.339,2.339,0,0,0-5.691-9.891a2.332,2.332,0,0,0-2,1,4.876,4.876,0,0,0-.738,2.84v.656a4.935,4.935,0,0,0,.73,2.9A2.352,2.352,0,0,0-5.676-1.469a2.325,2.325,0,0,0,2.02-1,5.041,5.041,0,0,0,.707-2.922ZM10.027,0H8.059V-5.047H2.973V0H1V-11.375H2.973v4.734H8.059v-4.734h1.969Z" transform="translate(792.051 5434.812)" fill="#12263f"/>
    <path id="Trazado_923427" data-name="Trazado 923427" d="M2.306,5H-2.155V4.239L.055,1.828A5.5,5.5,0,0,0,.736.937,1.443,1.443,0,0,0,.939.22,1.09,1.09,0,0,0,.672-.546.925.925,0,0,0-.046-.838,1.066,1.066,0,0,0-.88-.509a1.29,1.29,0,0,0-.3.9H-2.283A2.17,2.17,0,0,1-2.007-.7a1.9,1.9,0,0,1,.788-.754A2.509,2.509,0,0,1-.036-1.726a2.245,2.245,0,0,1,1.524.485A1.685,1.685,0,0,1,2.046.1a2.277,2.277,0,0,1-.28,1.041A5.921,5.921,0,0,1,.848,2.38L-.775,4.116H2.306Z" transform="translate(772.051 5431.812)" fill="#12263f"/>
    <path id="Trazado_923431" data-name="Trazado 923431" d="M-.973-5.391a6.979,6.979,0,0,1-.578,2.934A4.371,4.371,0,0,1-3.2-.52,4.545,4.545,0,0,1-5.676.156,4.556,4.556,0,0,1-8.141-.52,4.438,4.438,0,0,1-9.812-2.445a6.761,6.761,0,0,1-.6-2.883v-.641a6.919,6.919,0,0,1,.59-2.937,4.433,4.433,0,0,1,1.664-1.949,4.531,4.531,0,0,1,2.465-.676,4.57,4.57,0,0,1,2.465.668,4.377,4.377,0,0,1,1.66,1.922A6.9,6.9,0,0,1-.973-6.023Zm-1.977-.594a4.973,4.973,0,0,0-.715-2.9A2.339,2.339,0,0,0-5.691-9.891a2.332,2.332,0,0,0-2,1,4.876,4.876,0,0,0-.738,2.84v.656a4.935,4.935,0,0,0,.73,2.9A2.352,2.352,0,0,0-5.676-1.469a2.325,2.325,0,0,0,2.02-1,5.041,5.041,0,0,0,.707-2.922ZM10.027,0H8.059V-5.047H2.973V0H1V-11.375H2.973v4.734H8.059v-4.734h1.969Z" transform="translate(802.051 5563.812)" fill="#12263f"/>
    <path id="Trazado_923429" data-name="Trazado 923429" d="M-.973-5.391a6.979,6.979,0,0,1-.578,2.934A4.371,4.371,0,0,1-3.2-.52,4.545,4.545,0,0,1-5.676.156,4.556,4.556,0,0,1-8.141-.52,4.438,4.438,0,0,1-9.812-2.445a6.761,6.761,0,0,1-.6-2.883v-.641a6.919,6.919,0,0,1,.59-2.937,4.433,4.433,0,0,1,1.664-1.949,4.531,4.531,0,0,1,2.465-.676,4.57,4.57,0,0,1,2.465.668,4.377,4.377,0,0,1,1.66,1.922A6.9,6.9,0,0,1-.973-6.023Zm-1.977-.594a4.973,4.973,0,0,0-.715-2.9A2.339,2.339,0,0,0-5.691-9.891a2.332,2.332,0,0,0-2,1,4.876,4.876,0,0,0-.738,2.84v.656a4.935,4.935,0,0,0,.73,2.9A2.352,2.352,0,0,0-5.676-1.469a2.325,2.325,0,0,0,2.02-1,5.041,5.041,0,0,0,.707-2.922ZM10.027,0H8.059V-5.047H2.973V0H1V-11.375H2.973v4.734H8.059v-4.734h1.969Z" transform="translate(771.051 5495.812)" fill="#12263f"/>
    <path id="Trazado_923432" data-name="Trazado 923432" d="M-1.07-3.7A4.107,4.107,0,0,1-2.414-.863,4.581,4.581,0,0,1-5.531.156,4.436,4.436,0,0,1-7.926-.488a4.231,4.231,0,0,1-1.6-1.832,6.611,6.611,0,0,1-.586-2.758V-6.141a6.659,6.659,0,0,1,.57-2.836A4.3,4.3,0,0,1-7.9-10.867a4.566,4.566,0,0,1,2.465-.664,4.4,4.4,0,0,1,3.031,1.02A4.26,4.26,0,0,1-1.07-7.625H-3.039a2.81,2.81,0,0,0-.715-1.77,2.363,2.363,0,0,0-1.684-.543A2.308,2.308,0,0,0-7.418-9a4.709,4.709,0,0,0-.707,2.764v1.009a5,5,0,0,0,.66,2.815,2.191,2.191,0,0,0,1.934.97,2.555,2.555,0,0,0,1.75-.523A2.729,2.729,0,0,0-3.039-3.7ZM9.727,0H7.758V-5.047H2.672V0H.7V-11.375H2.672v4.734H7.758v-4.734H9.727Z" transform="translate(830.051 5456.812)" fill="#12263f"/>
    <path id="Trazado_923434" data-name="Trazado 923434" d="M-.973-5.391a6.979,6.979,0,0,1-.578,2.934A4.371,4.371,0,0,1-3.2-.52,4.545,4.545,0,0,1-5.676.156,4.556,4.556,0,0,1-8.141-.52,4.438,4.438,0,0,1-9.812-2.445a6.761,6.761,0,0,1-.6-2.883v-.641a6.919,6.919,0,0,1,.59-2.937,4.433,4.433,0,0,1,1.664-1.949,4.531,4.531,0,0,1,2.465-.676,4.57,4.57,0,0,1,2.465.668,4.377,4.377,0,0,1,1.66,1.922A6.9,6.9,0,0,1-.973-6.023Zm-1.977-.594a4.973,4.973,0,0,0-.715-2.9A2.339,2.339,0,0,0-5.691-9.891a2.332,2.332,0,0,0-2,1,4.876,4.876,0,0,0-.738,2.84v.656a4.935,4.935,0,0,0,.73,2.9A2.352,2.352,0,0,0-5.676-1.469a2.325,2.325,0,0,0,2.02-1,5.041,5.041,0,0,0,.707-2.922ZM10.027,0H8.059V-5.047H2.973V0H1V-11.375H2.973v4.734H8.059v-4.734h1.969Z" transform="translate(866.051 5456.812)" fill="#12263f"/>
    <path id="Trazado_923433" data-name="Trazado 923433" d="M2.306,5H-2.155V4.239L.055,1.828A5.5,5.5,0,0,0,.736.937,1.443,1.443,0,0,0,.939.22,1.09,1.09,0,0,0,.672-.546.925.925,0,0,0-.046-.838,1.066,1.066,0,0,0-.88-.509a1.29,1.29,0,0,0-.3.9H-2.283A2.17,2.17,0,0,1-2.007-.7a1.9,1.9,0,0,1,.788-.754A2.509,2.509,0,0,1-.036-1.726a2.245,2.245,0,0,1,1.524.485A1.685,1.685,0,0,1,2.046.1a2.277,2.277,0,0,1-.28,1.041A5.921,5.921,0,0,1,.848,2.38L-.775,4.116H2.306Z" transform="translate(846.051 5453.812)" fill="#12263f"/>
    <path id="Trazado_923435" data-name="Trazado 923435" d="M4.711-5.391a6.979,6.979,0,0,1-.578,2.934A4.371,4.371,0,0,1,2.48-.52,4.545,4.545,0,0,1,.008.156,4.556,4.556,0,0,1-2.457-.52,4.438,4.438,0,0,1-4.129-2.445a6.761,6.761,0,0,1-.6-2.883v-.641a6.919,6.919,0,0,1,.59-2.937,4.433,4.433,0,0,1,1.664-1.949,4.531,4.531,0,0,1,2.465-.676,4.57,4.57,0,0,1,2.465.668,4.377,4.377,0,0,1,1.66,1.922,6.9,6.9,0,0,1,.594,2.918ZM2.734-5.984a4.973,4.973,0,0,0-.715-2.9A2.339,2.339,0,0,0-.008-9.891a2.332,2.332,0,0,0-2,1,4.876,4.876,0,0,0-.738,2.84v.656a4.935,4.935,0,0,0,.73,2.9A2.352,2.352,0,0,0,.008-1.469a2.325,2.325,0,0,0,2.02-1,5.041,5.041,0,0,0,.707-2.922Z" transform="translate(889.051 5466.812)" fill="#12263f"/>
    <path id="Trazado_923436" data-name="Trazado 923436" d="M4.711-5.391a6.979,6.979,0,0,1-.578,2.934A4.371,4.371,0,0,1,2.48-.52,4.545,4.545,0,0,1,.008.156,4.556,4.556,0,0,1-2.457-.52,4.438,4.438,0,0,1-4.129-2.445a6.761,6.761,0,0,1-.6-2.883v-.641a6.919,6.919,0,0,1,.59-2.937,4.433,4.433,0,0,1,1.664-1.949,4.531,4.531,0,0,1,2.465-.676,4.57,4.57,0,0,1,2.465.668,4.377,4.377,0,0,1,1.66,1.922,6.9,6.9,0,0,1,.594,2.918ZM2.734-5.984a4.973,4.973,0,0,0-.715-2.9A2.339,2.339,0,0,0-.008-9.891a2.332,2.332,0,0,0-2,1,4.876,4.876,0,0,0-.738,2.84v.656a4.935,4.935,0,0,0,.73,2.9A2.352,2.352,0,0,0,.008-1.469a2.325,2.325,0,0,0,2.02-1,5.041,5.041,0,0,0,.707-2.922Z" transform="translate(840.051 5536.812)" fill="#12263f"/>
    <path id="Trazado_923430" data-name="Trazado 923430" d="M4.711-5.391a6.979,6.979,0,0,1-.578,2.934A4.371,4.371,0,0,1,2.48-.52,4.545,4.545,0,0,1,.008.156,4.556,4.556,0,0,1-2.457-.52,4.438,4.438,0,0,1-4.129-2.445a6.761,6.761,0,0,1-.6-2.883v-.641a6.919,6.919,0,0,1,.59-2.937,4.433,4.433,0,0,1,1.664-1.949,4.531,4.531,0,0,1,2.465-.676,4.57,4.57,0,0,1,2.465.668,4.377,4.377,0,0,1,1.66,1.922,6.9,6.9,0,0,1,.594,2.918ZM2.734-5.984a4.973,4.973,0,0,0-.715-2.9A2.339,2.339,0,0,0-.008-9.891a2.332,2.332,0,0,0-2,1,4.876,4.876,0,0,0-.738,2.84v.656a4.935,4.935,0,0,0,.73,2.9A2.352,2.352,0,0,0,.008-1.469a2.325,2.325,0,0,0,2.02-1,5.041,5.041,0,0,0,.707-2.922Z" transform="translate(803.051 5473.812)" fill="#12263f"/>
    <path id="Trazado_923437" data-name="Trazado 923437" d="M-1.07-3.7A4.107,4.107,0,0,1-2.414-.863,4.581,4.581,0,0,1-5.531.156,4.436,4.436,0,0,1-7.926-.488a4.231,4.231,0,0,1-1.6-1.832,6.611,6.611,0,0,1-.586-2.758V-6.141a6.659,6.659,0,0,1,.57-2.836A4.3,4.3,0,0,1-7.9-10.867a4.566,4.566,0,0,1,2.465-.664,4.4,4.4,0,0,1,3.031,1.02A4.26,4.26,0,0,1-1.07-7.625H-3.039a2.81,2.81,0,0,0-.715-1.77,2.363,2.363,0,0,0-1.684-.543A2.308,2.308,0,0,0-7.418-9a4.709,4.709,0,0,0-.707,2.764v1.009a5,5,0,0,0,.66,2.815,2.191,2.191,0,0,0,1.934.97,2.555,2.555,0,0,0,1.75-.523A2.729,2.729,0,0,0-3.039-3.7ZM9.727,0H7.758V-5.047H2.672V0H.7V-11.375H2.672v4.734H7.758v-4.734H9.727Z" transform="translate(925.051 5536.812)" fill="#12263f"/>
    <path id="Trazado_923439" data-name="Trazado 923439" d="M-.973-5.391a6.979,6.979,0,0,1-.578,2.934A4.371,4.371,0,0,1-3.2-.52,4.545,4.545,0,0,1-5.676.156,4.556,4.556,0,0,1-8.141-.52,4.438,4.438,0,0,1-9.812-2.445a6.761,6.761,0,0,1-.6-2.883v-.641a6.919,6.919,0,0,1,.59-2.937,4.433,4.433,0,0,1,1.664-1.949,4.531,4.531,0,0,1,2.465-.676,4.57,4.57,0,0,1,2.465.668,4.377,4.377,0,0,1,1.66,1.922A6.9,6.9,0,0,1-.973-6.023Zm-1.977-.594a4.973,4.973,0,0,0-.715-2.9A2.339,2.339,0,0,0-5.691-9.891a2.332,2.332,0,0,0-2,1,4.876,4.876,0,0,0-.738,2.84v.656a4.935,4.935,0,0,0,.73,2.9A2.352,2.352,0,0,0-5.676-1.469a2.325,2.325,0,0,0,2.02-1,5.041,5.041,0,0,0,.707-2.922ZM10.027,0H8.059V-5.047H2.973V0H1V-11.375H2.973v4.734H8.059v-4.734h1.969Z" transform="translate(961.051 5536.812)" fill="#12263f"/>
    <path id="Trazado_923438" data-name="Trazado 923438" d="M2.306,5H-2.155V4.239L.055,1.828A5.5,5.5,0,0,0,.736.937,1.443,1.443,0,0,0,.939.22,1.09,1.09,0,0,0,.672-.546.925.925,0,0,0-.046-.838,1.066,1.066,0,0,0-.88-.509a1.29,1.29,0,0,0-.3.9H-2.283A2.17,2.17,0,0,1-2.007-.7a1.9,1.9,0,0,1,.788-.754A2.509,2.509,0,0,1-.036-1.726a2.245,2.245,0,0,1,1.524.485A1.685,1.685,0,0,1,2.046.1a2.277,2.277,0,0,1-.28,1.041A5.921,5.921,0,0,1,.848,2.38L-.775,4.116H2.306Z" transform="translate(941.051 5533.812)" fill="#12263f"/>
    <path id="Trazado_923440" data-name="Trazado 923440" d="M-26.254-2.93a1.374,1.374,0,0,0-.527-1.156,6.345,6.345,0,0,0-1.9-.82,9.186,9.186,0,0,1-2.187-.922,2.919,2.919,0,0,1-1.555-2.547A2.772,2.772,0,0,1-31.3-10.641a4.538,4.538,0,0,1,2.91-.891,4.916,4.916,0,0,1,2.117.438,3.475,3.475,0,0,1,1.461,1.246,3.2,3.2,0,0,1,.531,1.793h-1.969a1.761,1.761,0,0,0-.559-1.383,2.318,2.318,0,0,0-1.6-.5,2.415,2.415,0,0,0-1.5.412,1.371,1.371,0,0,0-.535,1.151,1.241,1.241,0,0,0,.578,1.039,6.675,6.675,0,0,0,1.906.809,8.73,8.73,0,0,1,2.133.9,3.392,3.392,0,0,1,1.18,1.156,3.011,3.011,0,0,1,.375,1.527,2.707,2.707,0,0,1-1.09,2.262,4.727,4.727,0,0,1-2.957.84A5.557,5.557,0,0,1-30.594-.3,3.812,3.812,0,0,1-32.2-1.562a3.144,3.144,0,0,1-.574-1.875H-30.8a1.84,1.84,0,0,0,.641,1.5,2.805,2.805,0,0,0,1.836.531,2.437,2.437,0,0,0,1.551-.418A1.349,1.349,0,0,0-26.254-2.93ZM-17.676,0a2.93,2.93,0,0,1-.219-.789,2.955,2.955,0,0,1-2.219.945A2.982,2.982,0,0,1-22.191-.57a2.325,2.325,0,0,1-.8-1.8,2.4,2.4,0,0,1,1-2.074,4.865,4.865,0,0,1,2.871-.723h1.164v-.555a1.481,1.481,0,0,0-.367-1.051,1.456,1.456,0,0,0-1.117-.395A1.672,1.672,0,0,0-20.5-6.84a1,1,0,0,0-.414.824h-1.9a2.107,2.107,0,0,1,.461-1.3A3.071,3.071,0,0,1-21.1-8.266a4.4,4.4,0,0,1,1.77-.344,3.547,3.547,0,0,1,2.367.746,2.661,2.661,0,0,1,.906,2.1v3.813a4.321,4.321,0,0,0,.32,1.82V0Zm-2.086-1.367A2.159,2.159,0,0,0-18.7-1.641a1.827,1.827,0,0,0,.746-.734V-3.969H-18.98a2.8,2.8,0,0,0-1.586.367A1.189,1.189,0,0,0-21.1-2.562a1.109,1.109,0,0,0,.363.871A1.407,1.407,0,0,0-19.762-1.367Zm9.164.008a1.716,1.716,0,0,0,1.18-.414,1.415,1.415,0,0,0,.5-1.023h1.789a2.789,2.789,0,0,1-.492,1.473A3.228,3.228,0,0,1-8.871-.242a3.725,3.725,0,0,1-1.7.4A3.6,3.6,0,0,1-13.387-.992a4.555,4.555,0,0,1-1.039-3.172v-.2a4.479,4.479,0,0,1,1.031-3.09,3.571,3.571,0,0,1,2.813-1.16,3.473,3.473,0,0,1,2.457.879,3.148,3.148,0,0,1,1,2.309H-8.918a1.738,1.738,0,0,0-.5-1.2A1.6,1.6,0,0,0-10.6-7.086a1.671,1.671,0,0,0-1.422.668,3.408,3.408,0,0,0-.508,2.027v.3a3.465,3.465,0,0,0,.5,2.051A1.669,1.669,0,0,0-10.6-1.359ZM-.645,0A2.93,2.93,0,0,1-.863-.789,2.955,2.955,0,0,1-3.082.156,2.982,2.982,0,0,1-5.16-.57a2.325,2.325,0,0,1-.8-1.8,2.4,2.4,0,0,1,1-2.074A4.865,4.865,0,0,1-2.09-5.164H-.926v-.555A1.481,1.481,0,0,0-1.293-6.77,1.456,1.456,0,0,0-2.41-7.164a1.672,1.672,0,0,0-1.062.324,1,1,0,0,0-.414.824h-1.9a2.107,2.107,0,0,1,.461-1.3A3.071,3.071,0,0,1-4.07-8.266,4.4,4.4,0,0,1-2.3-8.609a3.547,3.547,0,0,1,2.367.746,2.661,2.661,0,0,1,.906,2.1v3.813a4.321,4.321,0,0,0,.32,1.82V0ZM-2.73-1.367a2.159,2.159,0,0,0,1.059-.273,1.827,1.827,0,0,0,.746-.734V-3.969H-1.949A2.8,2.8,0,0,0-3.535-3.6a1.189,1.189,0,0,0-.531,1.039,1.109,1.109,0,0,0,.363.871A1.407,1.407,0,0,0-2.73-1.367ZM7.387-6.719a4.7,4.7,0,0,0-.773-.062,1.741,1.741,0,0,0-1.758,1V0h-1.9V-8.453H4.77l.047.945a2.139,2.139,0,0,1,1.906-1.1,1.777,1.777,0,0,1,.672.109ZM7.949-4.3a4.984,4.984,0,0,1,.492-2.238A3.6,3.6,0,0,1,9.824-8.074a3.9,3.9,0,0,1,2.047-.535,3.692,3.692,0,0,1,2.777,1.1A4.333,4.333,0,0,1,15.8-4.586l.008.445a5.029,5.029,0,0,1-.48,2.234A3.551,3.551,0,0,1,13.953-.383a3.925,3.925,0,0,1-2.066.539A3.667,3.667,0,0,1,9.023-1.035,4.563,4.563,0,0,1,7.949-4.211Zm1.9.164A3.406,3.406,0,0,0,10.387-2.1a1.752,1.752,0,0,0,1.5.738,1.733,1.733,0,0,0,1.5-.75,3.762,3.762,0,0,0,.535-2.2,3.362,3.362,0,0,0-.551-2.031,1.759,1.759,0,0,0-1.5-.75,1.743,1.743,0,0,0-1.477.738A3.691,3.691,0,0,0,9.848-4.141ZM22.152-2.3a.861.861,0,0,0-.418-.773,4.445,4.445,0,0,0-1.387-.469,7.129,7.129,0,0,1-1.617-.516,2.158,2.158,0,0,1-1.422-1.992,2.25,2.25,0,0,1,.922-1.828,3.644,3.644,0,0,1,2.344-.734,3.792,3.792,0,0,1,2.449.75,2.38,2.38,0,0,1,.934,1.945h-1.9a1.17,1.17,0,0,0-.406-.91,1.557,1.557,0,0,0-1.078-.363,1.682,1.682,0,0,0-1.02.289.911.911,0,0,0-.395.773.769.769,0,0,0,.367.68,5.049,5.049,0,0,0,1.484.488,7.027,7.027,0,0,1,1.754.586,2.484,2.484,0,0,1,.945.816A2.082,2.082,0,0,1,24.02-2.4a2.2,2.2,0,0,1-.945,1.848A4.031,4.031,0,0,1,20.6.156a4.371,4.371,0,0,1-1.852-.375A3.047,3.047,0,0,1,17.48-1.25a2.441,2.441,0,0,1-.453-1.414h1.844a1.338,1.338,0,0,0,.508,1.035,1.973,1.973,0,0,0,1.242.363,1.92,1.92,0,0,0,1.141-.285A.883.883,0,0,0,22.152-2.3ZM30.723,0A2.93,2.93,0,0,1,30.5-.789a2.955,2.955,0,0,1-2.219.945A2.982,2.982,0,0,1,26.207-.57a2.325,2.325,0,0,1-.8-1.8,2.4,2.4,0,0,1,1-2.074,4.865,4.865,0,0,1,2.871-.723h1.164v-.555a1.481,1.481,0,0,0-.367-1.051,1.456,1.456,0,0,0-1.117-.395,1.672,1.672,0,0,0-1.062.324,1,1,0,0,0-.414.824h-1.9a2.107,2.107,0,0,1,.461-1.3A3.071,3.071,0,0,1,27.3-8.266a4.4,4.4,0,0,1,1.77-.344,3.547,3.547,0,0,1,2.367.746,2.661,2.661,0,0,1,.906,2.1v3.813a4.321,4.321,0,0,0,.32,1.82V0ZM28.637-1.367A2.159,2.159,0,0,0,29.7-1.641a1.827,1.827,0,0,0,.746-.734V-3.969H29.418a2.8,2.8,0,0,0-1.586.367A1.189,1.189,0,0,0,27.3-2.562a1.109,1.109,0,0,0,.363.871A1.407,1.407,0,0,0,28.637-1.367Zm-89.523,20.75a12.079,12.079,0,0,1,.473-3.391A9.85,9.85,0,0,1-59,13.039a6,6,0,0,1,1.945-1.875l.3.953a6.222,6.222,0,0,0-1.871,2.672,11.583,11.583,0,0,0-.8,4.023l-.008.664a11.643,11.643,0,0,0,1.1,5.234,6.252,6.252,0,0,0,1.578,2.078l-.3.883a6.192,6.192,0,0,1-1.984-1.937A10.859,10.859,0,0,1-60.887,19.383ZM-50.145,24a3.036,3.036,0,0,1-.2-.891,3.225,3.225,0,0,1-2.406,1.047,2.984,2.984,0,0,1-2.051-.707,2.287,2.287,0,0,1-.8-1.793,2.39,2.39,0,0,1,1-2.051,4.733,4.733,0,0,1,2.824-.73h1.406v-.664A1.623,1.623,0,0,0-50.824,17a1.821,1.821,0,0,0-1.336-.449,2.107,2.107,0,0,0-1.3.391,1.151,1.151,0,0,0-.523.945h-1.453a2,2,0,0,1,.449-1.223,3.066,3.066,0,0,1,1.219-.934,4.1,4.1,0,0,1,1.691-.344,3.342,3.342,0,0,1,2.289.73,2.635,2.635,0,0,1,.859,2.012v3.891a4.757,4.757,0,0,0,.3,1.852V24Zm-2.4-1.1a2.54,2.54,0,0,0,1.289-.352,2.127,2.127,0,0,0,.883-.914V19.9H-51.5q-2.656,0-2.656,1.555a1.316,1.316,0,0,0,.453,1.063A1.742,1.742,0,0,0-52.543,22.9Zm7.242-.078h4.945V24h-6.711V22.938l4.664-6.2H-47v-1.2h6.406V16.57Zm11.789.344a3.07,3.07,0,0,1-2.477.992,2.628,2.628,0,0,1-2.059-.785,3.4,3.4,0,0,1-.715-2.324v-5.5h1.445v5.461q0,1.922,1.563,1.922a2.163,2.163,0,0,0,2.2-1.234V15.547h1.445V24H-33.48Zm-1.172-11.148h1.75l-2.094,2.3-1.164,0Zm8.164,10.961a2.082,2.082,0,0,0,1.352-.469,1.649,1.649,0,0,0,.641-1.172h1.367a2.621,2.621,0,0,1-.5,1.383,3.293,3.293,0,0,1-1.23,1.047,3.55,3.55,0,0,1-1.629.391A3.482,3.482,0,0,1-29.266,23a4.59,4.59,0,0,1-1.02-3.152v-.242a5.089,5.089,0,0,1,.453-2.2,3.451,3.451,0,0,1,1.3-1.492,3.7,3.7,0,0,1,2-.531,3.39,3.39,0,0,1,2.363.852,3.043,3.043,0,0,1,1,2.211h-1.367a1.992,1.992,0,0,0-.621-1.348,1.932,1.932,0,0,0-1.379-.527,2.023,2.023,0,0,0-1.707.793,3.724,3.724,0,0,0-.605,2.293v.273a3.65,3.65,0,0,0,.6,2.25A2.033,2.033,0,0,0-26.52,22.977ZM-16.316,24a3.036,3.036,0,0,1-.2-.891,3.225,3.225,0,0,1-2.406,1.047,2.984,2.984,0,0,1-2.051-.707,2.287,2.287,0,0,1-.8-1.793,2.39,2.39,0,0,1,1-2.051,4.733,4.733,0,0,1,2.824-.73h1.406v-.664A1.623,1.623,0,0,0-17,17a1.821,1.821,0,0,0-1.336-.449,2.108,2.108,0,0,0-1.3.391,1.151,1.151,0,0,0-.523.945h-1.453a2,2,0,0,1,.449-1.223,3.066,3.066,0,0,1,1.219-.934,4.1,4.1,0,0,1,1.691-.344,3.342,3.342,0,0,1,2.289.73,2.635,2.635,0,0,1,.859,2.012v3.891a4.757,4.757,0,0,0,.3,1.852V24Zm-2.4-1.1a2.54,2.54,0,0,0,1.289-.352,2.127,2.127,0,0,0,.883-.914V19.9h-1.133q-2.656,0-2.656,1.555a1.316,1.316,0,0,0,.453,1.063A1.742,1.742,0,0,0-18.715,22.9Zm9.969-6.055a4.331,4.331,0,0,0-.711-.055A1.9,1.9,0,0,0-11.387,18v6h-1.445V15.547h1.406l.023.977a2.251,2.251,0,0,1,2.016-1.133,1.477,1.477,0,0,1,.641.109ZM-3.809,19.7a4.952,4.952,0,0,1,.922-3.129A2.915,2.915,0,0,1-.473,15.391a2.932,2.932,0,0,1,2.352,1.016V12H3.324V24H2l-.07-.906A2.943,2.943,0,0,1-.488,24.156a2.887,2.887,0,0,1-2.395-1.2,5.008,5.008,0,0,1-.926-3.141Zm1.445.164a3.749,3.749,0,0,0,.594,2.25,1.92,1.92,0,0,0,1.641.813A2.108,2.108,0,0,0,1.879,21.7V17.813a2.125,2.125,0,0,0-1.992-1.2,1.929,1.929,0,0,0-1.656.82A4.128,4.128,0,0,0-2.363,19.867ZM9.074,24.156a3.693,3.693,0,0,1-2.8-1.129A4.19,4.19,0,0,1,5.2,20.008v-.266A5.073,5.073,0,0,1,5.68,17.5a3.748,3.748,0,0,1,1.344-1.547,3.378,3.378,0,0,1,1.871-.559,3.166,3.166,0,0,1,2.563,1.086,4.7,4.7,0,0,1,.914,3.109v.6H6.645a3,3,0,0,0,.73,2.02,2.3,2.3,0,0,0,1.777.77,2.517,2.517,0,0,0,1.3-.312,3.259,3.259,0,0,0,.93-.828l.883.688A3.55,3.55,0,0,1,9.074,24.156Zm-.18-7.578a1.928,1.928,0,0,0-1.469.637A3.1,3.1,0,0,0,6.691,19h4.234v-.109a2.753,2.753,0,0,0-.594-1.707A1.815,1.815,0,0,0,8.895,16.578Zm10.469-1.031.039.938a3.122,3.122,0,0,1,2.508-1.094,2.417,2.417,0,0,1,2.414,1.359,3.2,3.2,0,0,1,1.1-.984,3.242,3.242,0,0,1,1.6-.375q2.781,0,2.828,2.945V24H28.4V18.422a1.941,1.941,0,0,0-.414-1.355,1.823,1.823,0,0,0-1.391-.449,1.916,1.916,0,0,0-1.336.48,1.949,1.949,0,0,0-.617,1.293V24H23.191V18.461a1.613,1.613,0,0,0-1.8-1.844,1.934,1.934,0,0,0-1.945,1.211V24H18V15.547Zm16.172,8.609a3.693,3.693,0,0,1-2.8-1.129,4.19,4.19,0,0,1-1.078-3.02v-.266a5.073,5.073,0,0,1,.48-2.246,3.748,3.748,0,0,1,1.344-1.547,3.378,3.378,0,0,1,1.871-.559,3.166,3.166,0,0,1,2.563,1.086,4.7,4.7,0,0,1,.914,3.109v.6H33.105a3,3,0,0,0,.73,2.02,2.3,2.3,0,0,0,1.777.77,2.517,2.517,0,0,0,1.3-.312,3.259,3.259,0,0,0,.93-.828l.883.688A3.55,3.55,0,0,1,35.535,24.156Zm-.18-7.578a1.928,1.928,0,0,0-1.469.637A3.1,3.1,0,0,0,33.152,19h4.234v-.109a2.753,2.753,0,0,0-.594-1.707A1.815,1.815,0,0,0,35.355,16.578Zm10.07,5.18a1.064,1.064,0,0,0-.441-.91,4.249,4.249,0,0,0-1.539-.559,7.277,7.277,0,0,1-1.742-.562,2.479,2.479,0,0,1-.953-.781,1.869,1.869,0,0,1-.309-1.078,2.193,2.193,0,0,1,.879-1.758,3.432,3.432,0,0,1,2.246-.719,3.532,3.532,0,0,1,2.332.742,2.357,2.357,0,0,1,.895,1.9H45.34a1.3,1.3,0,0,0-.5-1.023,1.888,1.888,0,0,0-1.27-.43,1.976,1.976,0,0,0-1.234.344,1.082,1.082,0,0,0-.445.9.877.877,0,0,0,.414.789,5.1,5.1,0,0,0,1.5.508,7.8,7.8,0,0,1,1.754.578,2.558,2.558,0,0,1,1,.809,1.988,1.988,0,0,1,.324,1.152,2.163,2.163,0,0,1-.906,1.816,3.8,3.8,0,0,1-2.352.684,4.257,4.257,0,0,1-1.8-.359,2.922,2.922,0,0,1-1.223-1,2.42,2.42,0,0,1-.441-1.395H41.6a1.5,1.5,0,0,0,.582,1.152,2.258,2.258,0,0,0,1.434.426,2.331,2.331,0,0,0,1.316-.332A1.02,1.02,0,0,0,45.426,21.758ZM53.973,24a3.036,3.036,0,0,1-.2-.891,3.225,3.225,0,0,1-2.406,1.047,2.984,2.984,0,0,1-2.051-.707,2.287,2.287,0,0,1-.8-1.793,2.39,2.39,0,0,1,1-2.051,4.733,4.733,0,0,1,2.824-.73h1.406v-.664A1.623,1.623,0,0,0,53.293,17a1.821,1.821,0,0,0-1.336-.449,2.107,2.107,0,0,0-1.3.391,1.151,1.151,0,0,0-.523.945H48.684a2,2,0,0,1,.449-1.223,3.066,3.066,0,0,1,1.219-.934,4.1,4.1,0,0,1,1.691-.344,3.342,3.342,0,0,1,2.289.73,2.635,2.635,0,0,1,.859,2.012v3.891a4.757,4.757,0,0,0,.3,1.852V24Zm-2.4-1.1a2.54,2.54,0,0,0,1.289-.352,2.127,2.127,0,0,0,.883-.914V19.9H52.613q-2.656,0-2.656,1.555a1.316,1.316,0,0,0,.453,1.063A1.742,1.742,0,0,0,51.574,22.9Zm9.219-3.437a12.084,12.084,0,0,1-.457,3.34,9.876,9.876,0,0,1-1.4,2.949,6.127,6.127,0,0,1-1.973,1.922l-.3-.883a6.281,6.281,0,0,0,1.934-2.863,12.387,12.387,0,0,0,.746-4.309v-.25A12.861,12.861,0,0,0,59,16.316a10.3,10.3,0,0,0-.957-2.527,5.838,5.838,0,0,0-1.379-1.742l.3-.883A6.1,6.1,0,0,1,58.93,13.07a9.9,9.9,0,0,1,1.4,2.945A12.363,12.363,0,0,1,60.793,19.461Z" transform="translate(837.715 5620.5)" fill="#12263f"/>
  </g>
</svg>
