<svg xmlns="http://www.w3.org/2000/svg" xmlns:xlink="http://www.w3.org/1999/xlink" width="85" height="79" viewBox="0 0 85 79">
  <defs>
    <clipPath id="clip-path">
      <rect id="Rect치ngulo_402676" data-name="Rect치ngulo 402676" width="75.611" height="53.366" fill="none"/>
    </clipPath>
  </defs>
  <g id="Grupo_1109979" data-name="Grupo 1109979" transform="translate(-180 -717)">
    <rect id="Rect치ngulo_402675" data-name="Rect치ngulo 402675" width="85" height="79" rx="8" transform="translate(180 717)" fill="#bf908c"/>
    <g id="Grupo_1109978" data-name="Grupo 1109978" transform="translate(185.389 729.772)">
      <g id="Grupo_1109977" data-name="Grupo 1109977" clip-path="url(#clip-path)">
        <path id="Trazado_898086" data-name="Trazado 898086" d="M75.275,51.948c.4,6.454.214,12.325-5.116,16.778-7.834,6.545-20.043,9.114-29.949,9.8a60.483,60.483,0,0,1-28.7-5.017C5.222,70.677,1.69,63.68.8,57.138c-.517-3.795-1.545-8.4.08-12.072,1.109-2.508,3.673-7.222,6.5-7.777Z" transform="translate(0 -25.303)" fill="#c04f4e"/>
        <path id="Trazado_898087" data-name="Trazado 898087" d="M12.148,5.629C.86,12.054-3.327,24.16,4.685,35.323c8.194,11.417,28.6,12.272,41.132,10.093,9.434-1.641,26.906-3.788,29.726-15.113C78.928,16.713,61.638,6.191,51.116,2.718,38.444-1.465,23.908-1.063,12.148,5.629" transform="translate(-0.364 0)" fill="#f1cac1"/>
        <path id="Trazado_898088" data-name="Trazado 898088" d="M63.771,27.822c-3.534-7.713-21.9,1.667-9.832,5.785C57.2,34.72,66.6,34,63.771,27.822" transform="translate(-33.847 -16.877)" fill="#fff"/>
        <path id="Trazado_898089" data-name="Trazado 898089" d="M66.557,33.3c-1.766-1.154-8.816-.989-9.751,1.523-.811,2.179,2.929,2.455,4.426,2.3,1.561-.162,9.4-1.156,5.324-3.823" transform="translate(-38.469 -22.132)" fill="#c04f4e"/>
        <path id="Trazado_898090" data-name="Trazado 898090" d="M24.886,47.285c.641,4.472-2.931,10.588-6.958,12.047C9.964,62.216,4.1,49.923,6.6,43.6c1.714-4.318,6.122-7.273,10.12-9.188-.532,5.75,6.061,6.824,7.838,11.581a6.182,6.182,0,0,1,.324,1.29" transform="translate(-4.083 -23.352)" fill="#f48c87"/>
        <path id="Trazado_898091" data-name="Trazado 898091" d="M82.383,42.378c3.879,3.237,3.646,6.814-1.211,8.163-1.818.5-11.139.523-8.433-2.419.286-.311,10.877-4.714,9.643-5.744" transform="translate(-49.026 -28.756)" fill="#f48c87"/>
        <path id="Trazado_898092" data-name="Trazado 898092" d="M116.825,67.678c-9.562,2.03-20.69-1.95-29.73-4.92a22.45,22.45,0,0,1-8.675-5.311c3.06-.346,5.715.428,8.857-.653,3.714-1.278,3.081-3.118,3.976-6.182.889-3.043,5.309-2.434,8.145-2.476,4.365-.065,10.523-1.45,14.685.032,4.019,1.43,8.694,4.208,9.6,8.7a9.019,9.019,0,0,1-6.86,10.812" transform="translate(-53.212 -32.222)" fill="#f48c87"/>
        <path id="Trazado_898093" data-name="Trazado 898093" d="M77.487,93.831c-4.914-1.776-10.629-3.344-15.07-6.106-1.7-1.058-2.835-2.536-4.424-.771-1.485,1.65-1.752,4.456-3.511,6.252-1.959,2-5.156,4.157-.994,5.813,3.547,1.411,8.885,1.148,12.645,1.184a108.21,108.21,0,0,0,12.144-.846,46.409,46.409,0,0,0,8.987-1.843c-2.185-2.274-6.823-2.617-9.777-3.685" transform="translate(-34.913 -58.447)" fill="#f48c87"/>
        <path id="Trazado_898094" data-name="Trazado 898094" d="M116.028,21.585c-4.394-.274-8.175.786-12.421-.917-2.235-.9-6.755-3.237-4.893-6.318,2-3.3,8.7-.4,11.312.241,3.83.935,9.579,1.112,12.7,3.788,4.571,3.918-4.58,3.339-6.7,3.206" transform="translate(-66.684 -8.686)" fill="#f48c87"/>
        <path id="Trazado_898095" data-name="Trazado 898095" d="M59.629,12.092c-1.792-2.516-6.953-.241-8.677,1.243-4.937,4.25,3.4,1.417,5.167,1.179,1.588-.214,5.232-.006,3.511-2.422" transform="translate(-33.527 -7.441)" fill="#f48c87"/>
        <path id="Trazado_898096" data-name="Trazado 898096" d="M88.777,9.509a2.548,2.548,0,0,0,.555,1.231c4.433-.209,1.027-4.552-.565-1.577.371.175.3.464.405.623Z" transform="translate(-60.234 -5.513)" fill="#f48c87"/>
        <path id="Trazado_898097" data-name="Trazado 898097" d="M190.5,36.032c-1.541.245-5.391-1.3-5.236-3.216a20.127,20.127,0,0,0,1.064-2.622c.994.483,3.98,4.877,4.172,5.838" transform="translate(-125.711 -20.488)" fill="#f48c87"/>
      </g>
    </g>
  </g>
</svg>
